<svg version="1.0" xmlns="http://www.w3.org/2000/svg"
   viewBox="638 336 1122 1118"
 preserveAspectRatio="xMidYMid meet">

<g transform="translate(0.000000,1792.000000) scale(0.100000,-0.100000)"
fill="#3b82f6" stroke="none">
<path d="M7975 14553 c-81 -7 -303 -55 -386 -84 -329 -112 -638 -330 -833
-589 -84 -111 -88 -118 -153 -235 -116 -209 -183 -443 -213 -740 -8 -78 -10
-1232 -8 -4025 l3 -3915 22 -121 c13 -67 38 -174 58 -238 189 -624 694 -1079
1352 -1218 l108 -23 4075 0 4075 0 110 23 c131 28 353 101 435 142 477 241
817 655 941 1147 64 254 60 -71 57 4308 l-3 3980 -22 115 c-62 318 -161 555
-328 780 -224 300 -588 545 -955 641 -216 57 140 53 -4260 54 -2219 1 -4053 0
-4075 -2z m3812 -1206 c-55 -128 -167 -361 -577 -1207 -86 -179 -173 -359
-193 -400 -19 -41 -67 -142 -106 -224 -39 -82 -71 -154 -71 -160 0 -8 172 -10
629 -8 403 1 632 -1 636 -7 3 -6 -30 -61 -73 -123 -148 -213 -225 -323 -322
-458 -53 -74 -120 -169 -148 -210 -102 -148 -200 -288 -314 -447 -64 -89 -122
-172 -129 -184 -6 -12 -55 -84 -109 -158 -267 -374 -375 -527 -512 -726 -109
-159 -192 -276 -328 -465 -74 -102 -152 -212 -175 -245 -23 -33 -71 -100 -107
-150 -81 -112 -202 -295 -223 -336 -9 -17 -18 -29 -21 -27 -4 5 21 96 168 593
38 131 90 300 110 360 11 33 35 112 53 175 37 128 154 522 246 822 33 108 70
234 83 280 13 45 40 139 60 208 20 68 36 128 36 132 0 4 -279 8 -620 8 -341 0
-620 1 -620 3 2 16 89 261 128 357 28 69 78 199 110 290 64 174 153 415 202
540 16 41 117 309 224 595 107 286 218 581 246 655 28 74 64 171 80 215 57
164 112 300 124 310 21 16 1520 8 1513 -8z m2996 -1247 c31 -24 67 -96 67
-133 0 -38 -50 -237 -106 -419 -53 -175 -92 -312 -159 -553 -26 -93 -53 -189
-61 -212 -7 -24 -28 -96 -45 -160 -37 -138 -56 -181 -101 -218 -64 -54 -106
-64 -372 -90 -260 -26 -552 -58 -691 -75 -44 -5 -262 -27 -485 -50 -223 -22
-472 -47 -555 -55 -82 -9 -175 -18 -205 -21 -81 -8 -113 -21 -147 -57 -92 -97
-63 -230 62 -283 37 -16 127 -17 1135 -18 1083 -1 1095 -2 1130 -22 19 -11 45
-36 58 -55 47 -68 12 -183 -64 -215 -28 -12 -220 -14 -1148 -14 -793 0 -1130
3 -1168 11 -89 19 -158 58 -229 129 -87 87 -111 140 -117 256 -5 116 12 172
81 262 29 37 72 97 97 134 25 36 120 171 211 300 92 128 203 287 248 353 45
66 125 179 177 250 52 72 118 164 146 205 28 41 91 132 140 201 48 69 88 129
88 133 0 3 -313 6 -695 6 -467 0 -695 3 -695 10 0 6 30 77 66 158 36 81 77
173 92 205 l25 57 1597 0 c1583 0 1598 0 1623 -20z m-2499 -2855 c57 -24 131
-98 157 -158 17 -39 23 -71 23 -127 1 -66 -4 -85 -32 -142 -89 -182 -309 -227
-472 -98 -54 43 -101 140 -107 222 -10 128 74 258 198 307 63 25 168 23 233
-4z m1607 1 c60 -25 123 -82 154 -137 23 -44 30 -69 33 -135 4 -72 1 -88 -23
-143 -51 -113 -152 -181 -270 -181 -127 0 -239 68 -286 173 -19 41 -24 70 -24
138 0 76 3 92 30 144 35 68 103 127 175 150 53 17 159 13 211 -9z m-4506
-2102 c73 -30 118 -122 95 -196 -35 -120 -189 -170 -304 -99 -120 75 -88 268
52 311 33 11 114 2 157 -16z m-1658 -105 c8 -19 27 -77 43 -129 15 -52 79
-252 141 -445 62 -192 134 -420 161 -505 60 -193 59 -192 67 -160 4 14 30 99
60 190 29 91 98 305 153 475 55 171 121 376 146 457 l47 147 183 2 c100 1 190
2 200 3 9 0 16 -6 15 -14 -1 -8 -36 -112 -78 -230 -160 -451 -455 -1304 -482
-1393 l-14 -47 -231 2 -232 3 -62 175 c-34 96 -110 310 -169 475 -59 165 -129
363 -157 440 -28 77 -70 194 -93 260 -24 66 -59 163 -79 215 -20 52 -36 98
-36 102 0 7 250 15 359 12 40 -1 45 -4 58 -35z m2375 -151 c1 -106 1 -244 1
-306 l0 -112 54 59 c127 141 344 179 529 92 93 -44 193 -145 240 -244 51 -108
64 -166 70 -312 11 -243 -46 -417 -180 -551 -76 -75 -130 -106 -229 -129 -79
-19 -136 -19 -215 0 -90 21 -136 48 -207 121 -35 35 -66 61 -68 57 -2 -5 -5
-41 -6 -82 -1 -41 -4 -79 -7 -83 -6 -9 -297 -10 -320 -1 -12 4 -14 144 -14
837 0 458 2 835 4 837 3 2 81 5 175 7 l171 3 2 -193z m3478 148 c191 -84 272
-199 274 -386 1 -86 -2 -101 -29 -155 -39 -78 -105 -143 -180 -179 l-59 -28
50 -17 c176 -59 281 -190 292 -366 12 -200 -81 -360 -258 -446 -123 -60 -148
-63 -625 -63 l-430 -1 -3 830 c-1 457 0 835 2 840 2 7 158 8 452 5 l449 -5 65
-29z m-1575 -401 c143 -48 238 -130 300 -260 51 -107 68 -184 69 -315 l1 -115
-429 -3 -429 -2 5 -43 c7 -56 53 -158 86 -190 75 -72 227 -94 327 -49 56 26
100 63 122 105 13 27 18 28 61 23 181 -20 245 -31 249 -42 3 -7 -14 -49 -37
-93 -49 -94 -137 -184 -222 -225 -121 -59 -329 -73 -491 -32 -113 29 -142 43
-225 108 -67 54 -102 99 -150 193 -37 75 -50 122 -62 227 -29 254 78 528 254
647 145 98 391 127 571 66z m-2538 -599 c1 -334 -2 -616 -5 -626 -6 -17 -21
-18 -177 -17 l-170 2 -3 628 -2 627 177 -2 178 -3 2 -609z m5014 224 c4 -238
11 -398 18 -420 30 -96 94 -149 190 -157 52 -5 68 -2 115 21 67 33 97 67 127
143 21 56 22 71 23 428 l1 370 170 0 170 0 0 -625 0 -625 -160 0 -160 0 -5
105 -5 105 -23 -37 c-32 -52 -146 -144 -201 -163 -72 -26 -196 -30 -284 -11
-90 20 -153 60 -210 130 -103 131 -117 215 -117 727 0 212 3 389 7 393 4 3 81
5 172 4 l166 -3 6 -385z m1363 363 c4 -16 54 -172 111 -348 57 -176 116 -363
131 -415 25 -90 44 -133 44 -99 0 9 46 166 101 350 149 492 158 519 164 530 7
10 348 13 358 3 3 -3 -8 -43 -25 -88 -17 -44 -41 -112 -53 -151 -13 -38 -58
-167 -100 -285 -42 -118 -110 -314 -152 -435 -91 -264 -175 -482 -210 -547
-84 -154 -275 -236 -487 -209 -129 17 -136 19 -136 47 0 14 12 71 26 127 l25
102 90 -4 90 -3 43 44 c27 27 48 59 55 84 14 52 6 80 -149 499 -67 182 -152
413 -190 515 -38 102 -78 209 -89 238 -12 29 -21 57 -21 62 0 6 73 10 184 10
l184 0 6 -27z"/>
<path d="M10287 6374 c-70 -22 -129 -84 -155 -165 -40 -120 -35 -283 12 -385
46 -99 110 -149 206 -161 153 -18 267 100 291 300 22 189 -36 338 -154 399
-53 27 -139 32 -200 12z"/>
<path d="M12970 6591 l0 -201 153 0 c256 0 354 45 371 169 12 94 -21 163 -97
204 -38 20 -58 22 -234 25 l-193 4 0 -201z"/>
<path d="M12970 5914 l0 -224 208 0 c164 0 218 3 255 16 167 57 167 313 0 398
-48 24 -139 34 -310 35 l-153 0 0 -225z"/>
<path d="M11745 6410 c-59 -10 -89 -25 -134 -65 -41 -37 -74 -96 -84 -152 l-6
-33 269 0 270 0 -6 28 c-22 94 -86 177 -158 207 -42 17 -102 23 -151 15z"/>
</g>
</svg>
